# xmcd
#
# Track frame offsets:
#	150
#	783
#	15100
#	29454
#	46372
#	56396
#	76808
#	92690
#	108509
#	121871
#	138852
#	154221
#	166535
#	181967
#	196650
#	210509
#	224334
#	225842
#	239253
#	257968
#	272071
#	283176
#	295740
#	307843
#	323315
#	323850
#	324504
#	325058
#	325883
#	326543
#	327066
#	327914
#	328800
#
# Disc length: 4401 seconds
#
# Revision: 1
# Processed by: cddbd v1.5.2PL0 Copyright (c) Steve Scherf et al.
# Submitted via: audiograbber 1.83.01
#
DISCID=ad112f21
DTITLE=Country Hotdisc - Country Hotdisc 015
DYEAR=2000
DGENRE=Country
TTITLE0=Intro - Intro
TTITLE1=Big Bang Boogie - The Judds
TTITLE2=Another Nine Minutes - Yankee Grey
TTITLE3=Who Needs Picture - Brad Paisley
TTITLE4=Main Street Usa - Lou Hobbs
TTITLE5=A Chance Of Heart - Glenn Mitchell
TTITLE6=Loving You Makes Me A Better Man - Vince Gill
TTITLE7=Déjà Vu - O J Hansen
TTITLE8=Fool´s Gold - Cowboy´s Nightmare
TTITLE9=To Get You - Lorrie Morgan
TTITLE10=Dancers - Wendy Ann
TTITLE11=That´s What I Like About You - Paula Macaskill
TTITLE12=Cowboy Up - Vicki Adams
TTITLE13=Granpa - Cindy Jackson
TTITLE14=Bob Away My Blues - Clint Black
TTITLE15=She´s My Lady - Boomer Mclennan
TTITLE16=Talking About The Song "angel" - Lee Markwell
TTITLE17=You´re The Angel - Lee Markwell
TTITLE18=Where The Eagels Flies - Jamie Ryan
TTITLE19=Hey Good Looking - Ragnar
TTITLE20=Life´s Too Short - Martin Donnelly
TTITLE21=Country Blues - Ragning Flames
TTITLE22=Rockabilly Baby - Bob Black
TTITLE23=Alice´s Boots These Boots Are Made For Walking - Foot C
TTITLE24=Spot Yankee Grey - Yankee Grey
TTITLE25=Spot O J Hansen - O J Hansen
TTITLE26=Spot O J Hansen - O J Hansen
TTITLE27=Spot Vicki Adams - Vicki Adams
TTITLE28=Spot Vicki Adams - Vicki Adams
TTITLE29=Spot Boomer Mclennan - Boomer Mclennan
TTITLE30=Spot Gene Austin - Gene Austin
TTITLE31=Spot 2 Gene Austin - Gene Austin
TTITLE32=Spot 3 Gene Austin - Gene Austin
EXTD=
EXTT0=
EXTT1=
EXTT2=
EXTT3=
EXTT4=
EXTT5=
EXTT6=
EXTT7=
EXTT8=
EXTT9=
EXTT10=
EXTT11=
EXTT12=
EXTT13=
EXTT14=
EXTT15=
EXTT16=
EXTT17=
EXTT18=
EXTT19=
EXTT20=
EXTT21=
EXTT22=
EXTT23=
EXTT24=
EXTT25=
EXTT26=
EXTT27=
EXTT28=
EXTT29=
EXTT30=
EXTT31=
EXTT32=
PLAYORDER=
